 <svg width="22" height="20" viewBox="0 0 22 20" fill="none" xmlns="http://www.w3.org/2000/svg">
                            <path d="M1.18377 0.640386C0.302324 0.613536 0.154523 1.89053 1.01878 2.06582L2.61102 2.41459C3.45328 6.44375 4.37139 10.4565 5.26168 14.4756C5.33489 14.8051 5.62721 15.0396 5.96477 15.0395H18.6085C19.5826 15.0539 19.5826 13.5852 18.6085 13.5995H6.5427L6.22397 12.1599H19.2464C19.584 12.16 19.8763 11.9256 19.9495 11.596L21.5441 4.3969C21.6435 3.94755 21.3017 3.52156 20.8415 3.52129C15.3327 3.52141 9.82397 3.52118 4.31534 3.51857L3.92396 1.66169C3.86563 1.38456 3.65027 1.16738 3.37368 1.10669L1.32631 0.658546C1.2795 0.647751 1.23181 0.64151 1.18381 0.640331L1.18377 0.640386ZM8.96173 15.52C7.90993 15.52 7.04184 16.3882 7.04184 17.44C7.04184 18.4919 7.90993 19.36 8.96173 19.36C10.0135 19.36 10.8816 18.4919 10.8816 17.44C10.8816 16.3882 10.0135 15.52 8.96173 15.52ZM15.6813 15.52C14.6295 15.52 13.7614 16.3882 13.7614 17.44C13.7614 18.4919 14.6295 19.36 15.6813 19.36C16.7331 19.36 17.6012 18.4919 17.6012 17.44C17.6012 16.3882 16.7331 15.52 15.6813 15.52Z" fill="#084876"/>
                            </svg>