<svg width="47" height="33" viewBox="0 0 47 33" fill="none" xmlns="http://www.w3.org/2000/svg">
<path d="M27.7127 7.11936C27.7146 6.34191 27.4881 5.58135 27.0617 4.93397C26.6354 4.28659 26.0284 3.78151 25.3176 3.48265C24.6068 3.18379 23.8241 3.1046 23.0688 3.2551C22.3134 3.4056 21.6192 3.77903 21.0741 4.32811C20.529 4.87719 20.1575 5.57723 20.0066 6.33962C19.8557 7.102 19.9322 7.89246 20.2265 8.61091C20.5207 9.32936 21.0194 9.9435 21.6595 10.3756C22.2996 10.8077 23.0523 11.0383 23.8222 11.0383C24.8524 11.0383 25.8406 10.6258 26.57 9.89111C27.2993 9.15643 27.7103 8.15962 27.7127 7.11936ZM23.8222 9.88074C23.2818 9.87883 22.754 9.71527 22.3056 9.4107C21.8571 9.10614 21.5081 8.67423 21.3026 8.16951C21.0971 7.66479 21.0443 7.1099 21.1509 6.57491C21.2575 6.03991 21.5186 5.5488 21.9015 5.16359C22.2843 4.77838 22.7715 4.51634 23.3017 4.41057C23.8319 4.30479 24.3813 4.36002 24.8804 4.56928C25.3795 4.77854 25.806 5.13245 26.1061 5.58631C26.4062 6.04018 26.5663 6.57365 26.5664 7.11936C26.5643 7.85273 26.2742 8.55531 25.7597 9.07298C25.2453 9.59065 24.5485 9.88115 23.8222 9.88074Z" fill="#332208"/>
<path d="M11.1733 16.8259C10.6423 16.8272 10.1235 16.9874 9.68251 17.2862C9.24156 17.585 8.89821 18.0091 8.69585 18.5049C8.49348 19.0007 8.44119 19.5459 8.54556 20.0717C8.64994 20.5975 8.9063 21.0803 9.28227 21.459C9.65824 21.8377 10.1369 22.0954 10.6579 22.1996C11.1788 22.3037 11.7187 22.2496 12.2092 22.0441C12.6997 21.8386 13.1189 21.4909 13.4138 21.0449C13.7087 20.599 13.8661 20.0747 13.8661 19.5385C13.8644 18.8185 13.58 18.1285 13.0752 17.62C12.5704 17.1114 11.8864 16.8259 11.1733 16.8259ZM11.1733 21.0936C10.869 21.0924 10.5718 21.0001 10.3194 20.8284C10.067 20.6568 9.87054 20.4135 9.75494 20.1292C9.63934 19.8449 9.60974 19.5325 9.66987 19.2312C9.73001 18.93 9.87719 18.6535 10.0928 18.4366C10.3085 18.2198 10.5829 18.0723 10.8815 18.0128C11.1801 17.9533 11.4894 17.9845 11.7704 18.1024C12.0515 18.2202 12.2917 18.4196 12.4606 18.6752C12.6296 18.9308 12.7197 19.2312 12.7197 19.5385C12.7185 19.9517 12.555 20.3475 12.2651 20.6392C11.9752 20.9308 11.5825 21.0944 11.1733 21.094V21.0936Z" fill="#332208"/>
<path d="M28.1848 21.869C27.7297 21.87 27.2851 22.0073 26.9071 22.2633C26.5292 22.5194 26.2349 22.8828 26.0615 23.3077C25.888 23.7326 25.8431 24.1998 25.9326 24.6504C26.022 25.101 26.2417 25.5148 26.5638 25.8394C26.886 26.1639 27.2962 26.3848 27.7427 26.4741C28.1891 26.5634 28.6518 26.5171 29.0722 26.341C29.4925 26.1648 29.8518 25.8669 30.1045 25.4847C30.3573 25.1025 30.4922 24.6533 30.4922 24.1937C30.4908 23.5767 30.2471 22.9854 29.8145 22.5496C29.382 22.1138 28.7958 21.869 28.1848 21.869ZM28.1848 25.3609C27.9564 25.3599 27.7334 25.2905 27.544 25.1617C27.3546 25.0328 27.2072 24.8501 27.1206 24.6368C27.0339 24.4234 27.0117 24.1889 27.0569 23.9628C27.1021 23.7368 27.2126 23.5293 27.3744 23.3666C27.5363 23.2039 27.7422 23.0932 27.9663 23.0486C28.1904 23.004 28.4225 23.0274 28.6335 23.1159C28.8444 23.2044 29.0246 23.354 29.1514 23.5458C29.2782 23.7376 29.3458 23.9631 29.3458 24.1937C29.3448 24.5038 29.2219 24.8009 29.0043 25.0197C28.7866 25.2384 28.4919 25.3611 28.1848 25.3608V25.3609Z" fill="#332208"/>
<path d="M40.4419 13.9529C40.897 13.9518 41.3416 13.8146 41.7196 13.5585C42.0975 13.3025 42.3918 12.939 42.5652 12.5142C42.7387 12.0893 42.7835 11.6221 42.6941 11.1714C42.6047 10.7208 42.385 10.3071 42.0629 9.98252C41.7407 9.65792 41.3305 9.43703 40.884 9.34776C40.4376 9.25848 39.9749 9.30482 39.5545 9.48092C39.1342 9.65702 38.7749 9.95499 38.5222 10.3372C38.2694 10.7194 38.1345 11.1686 38.1345 11.6282C38.1359 12.2452 38.3796 12.8365 38.8122 13.2723C39.2447 13.7081 39.8309 13.9529 40.4419 13.9529ZM40.4419 10.461C40.6703 10.462 40.8933 10.5313 41.0827 10.6602C41.2721 10.7891 41.4194 10.9717 41.5061 11.1851C41.5928 11.3985 41.615 11.633 41.5698 11.859C41.5246 12.0851 41.4141 12.2926 41.2523 12.4553C41.0904 12.618 40.8845 12.7287 40.6604 12.7733C40.4363 12.8179 40.2041 12.7945 39.9932 12.706C39.7823 12.6175 39.6021 12.4679 39.4753 12.2761C39.3485 12.0842 39.2809 11.8588 39.2809 11.6282C39.2819 11.318 39.4047 11.021 39.6224 10.8022C39.84 10.5833 40.1348 10.4607 40.4419 10.461Z" fill="#332208"/>
<path d="M42.1129 16.1938L43.6246 14.1593C44.2069 13.3916 44.4965 12.4382 44.4406 11.4728C44.3045 9.36654 42.596 7.71639 40.5509 7.71639C38.5058 7.71639 36.7976 9.36654 36.6612 11.4724C36.6316 11.9505 36.6905 12.43 36.8349 12.8864L27.381 13.0615L28.8401 11.0968C29.7713 9.87055 30.2348 8.34706 30.1461 6.80436C30.0457 5.22628 29.3814 3.73866 28.2765 2.61797C27.7073 2.04273 27.0314 1.5864 26.2874 1.27506C25.5434 0.963717 24.746 0.803467 23.9406 0.803467C23.1353 0.803467 22.3378 0.963717 21.5939 1.27506C20.8499 1.5864 20.174 2.04273 19.6047 2.61797C18.5001 3.73839 17.8357 5.22565 17.7352 6.80339C17.6378 8.27451 18.1 9.79695 19.0407 11.0959L20.3029 12.7945L6.86847 12.8839C6.74957 12.8847 6.63385 12.9228 6.53735 12.9929C6.44085 13.0631 6.36835 13.1618 6.32988 13.2754L0.0308205 31.8698C0.00132091 31.9569 -0.00716555 32.0499 0.00606599 32.141C0.0192975 32.2321 0.0538652 32.3187 0.106898 32.3936C0.15993 32.4685 0.229897 32.5296 0.310986 32.5717C0.392076 32.6138 0.481948 32.6358 0.573137 32.6358H46.4269C46.5168 32.6358 46.6054 32.6144 46.6857 32.5734C46.7659 32.5324 46.8354 32.4729 46.8887 32.3998C46.9419 32.3266 46.9774 32.2418 46.9922 32.1523C47.007 32.0627 47.0007 31.9709 46.9739 31.8843L42.1129 16.1938ZM37.8046 11.5483C37.8895 10.2337 38.9397 8.87392 40.5504 8.87392C42.1611 8.87392 43.2113 10.234 43.2963 11.5498C43.3339 12.2385 43.125 12.9179 42.7077 13.464L40.5504 16.3674L38.3973 13.4698C37.9831 12.9191 37.7735 12.239 37.805 11.5483H37.8046ZM37.3899 14.0334C37.4185 14.0754 37.4472 14.1173 37.4768 14.1588L40.0925 17.6796C40.1459 17.7515 40.2151 17.8098 40.2947 17.85C40.3743 17.8902 40.462 17.9111 40.551 17.9111C40.64 17.9111 40.7277 17.8902 40.8073 17.85C40.8869 17.8098 40.9562 17.7515 41.0095 17.6796L41.2655 17.3352L41.9171 19.4387L33.03 19.4408L32.3861 14.1267L37.3899 14.0334ZM19.9623 10.4073C19.1845 9.33345 18.7999 8.08101 18.8795 6.88008C18.9618 5.5818 19.5081 4.35784 20.4168 3.43567C20.8796 2.96827 21.429 2.59749 22.0337 2.34453C22.6384 2.09156 23.2865 1.96136 23.941 1.96136C24.5955 1.96136 25.2437 2.09156 25.8484 2.34453C26.453 2.59749 27.0025 2.96827 27.4652 3.43567C28.3745 4.35823 28.921 5.58281 29.0032 6.88172C29.0733 8.14778 28.6902 9.39708 27.9239 10.4017L23.9411 15.7621L19.9623 10.4073ZM1.375 31.4783L4.35263 22.6883L7.74275 22.6779L10.848 26.8571C10.9014 26.929 10.9706 26.9873 11.0502 27.0275C11.1298 27.0677 11.2176 27.0886 11.3065 27.0886C11.3955 27.0886 11.4833 27.0677 11.5629 27.0275C11.6425 26.9873 11.7117 26.929 11.7651 26.8571L14.2393 23.5267L14.2697 31.4783H1.375ZM14.045 21.8598L11.3064 25.5454L8.57213 21.8655C8.03459 21.1227 7.76854 20.2595 7.82338 19.4329C7.93094 17.767 9.26328 16.0439 11.3064 16.0439C13.3496 16.0439 14.6819 17.767 14.7897 19.4345C14.8376 20.307 14.5733 21.1677 14.045 21.8598ZM23.0786 25.4109C23.0245 25.4648 22.9815 25.529 22.9522 25.5998C22.9229 25.6706 22.9078 25.7465 22.9078 25.8233L22.9109 31.4783H15.4161L15.3801 21.8912C15.7959 21.1156 15.9878 20.2378 15.9341 19.3575C15.7722 16.8504 13.7398 14.8864 11.3071 14.8864C8.87448 14.8864 6.84211 16.8504 6.68019 19.3566C6.63663 20.0992 6.76896 20.8417 7.06622 21.5224L4.74583 21.5295L7.28335 14.0387L21.1597 13.9468L23.4832 17.0738C23.5366 17.1457 23.6058 17.204 23.6854 17.2442C23.765 17.2844 23.8527 17.3053 23.9417 17.3053C24.0307 17.3053 24.1185 17.2844 24.1981 17.2442C24.2776 17.204 24.3469 17.1457 24.4003 17.0738L26.5092 14.2349L31.2339 14.1474L31.9538 20.0894C31.9708 20.2296 32.0381 20.3588 32.1429 20.4525C32.2477 20.5461 32.3828 20.5978 32.5228 20.5978L42.2757 20.5956L43.7139 25.2379L32.0704 25.2579C32.1722 24.8601 32.2105 24.4484 32.1837 24.0385C32.0476 21.932 30.339 20.2819 28.2939 20.2819C26.2488 20.2819 24.5402 21.932 24.4042 24.0375C24.3783 24.4488 24.4184 24.8616 24.523 25.2599L23.4896 25.2444C23.4135 25.2423 23.3377 25.256 23.267 25.2847C23.1963 25.3133 23.1322 25.3563 23.0786 25.4109ZM30.451 26.0295L28.2938 28.933L26.1408 26.0354C25.7264 25.4848 25.5166 24.8048 25.5479 24.114C25.6329 22.7993 26.6832 21.4396 28.2938 21.4396C29.9044 21.4396 30.9548 22.7997 31.0398 24.1156C31.0772 24.8043 30.8682 25.4835 30.451 26.0296V26.0295ZM24.0572 31.4783L24.0545 26.4105L25.0205 26.425C25.0826 26.5265 25.149 26.6262 25.2196 26.724L27.8353 30.2448C27.8887 30.3167 27.9579 30.375 28.0375 30.4152C28.1171 30.4554 28.2048 30.4763 28.2938 30.4763C28.3828 30.4763 28.4706 30.4554 28.5502 30.4152C28.6297 30.375 28.699 30.3167 28.7524 30.2448L31.3676 26.7251C31.4424 26.6248 31.5122 26.5219 31.5771 26.4164L44.0723 26.395L45.647 31.4783H24.0572Z" fill="#332208"/>
</svg>
